0
SECTION
2
HEADER
9
$INSUNITS
70
4
9
$ACADVER
1
AC1014
9
$HANDSEED
5
FFFF
0
ENDSEC
0
SECTION
2
TABLES
0
TABLE
2
VPORT
5
8
100
AcDbSymbolTable
0
ENDTAB
0
TABLE
2
LTYPE
5
5
100
AcDbSymbolTable
0
LTYPE
5
14
100
AcDbSymbolTableRecord
100
AcDbLinetypeTableRecord
2
BYBLOCK
70
0
0
LTYPE
5
15
100
AcDbSymbolTableRecord
100
AcDbLinetypeTableRecord
2
BYLAYER
70
0
0
ENDTAB
0
TABLE
2
LAYER
5
2
100
AcDbSymbolTable
70
2
0
LAYER
5
50
100
AcDbSymbolTableRecord
100
AcDbLayerTableRecord
2
0
70
0
6
CONTINUOUS
0
ENDTAB
0
TABLE
2
STYLE
5
3
100
AcDbSymbolTable
70
1
0
STYLE
5
11
100
AcDbSymbolTableRecord
100
AcDbTextStyleTableRecord
2
STANDARD
70
0
0
ENDTAB
0
TABLE
2
VIEW
5
6
100
AcDbSymbolTable
70
0
0
ENDTAB
0
TABLE
2
UCS
5
7
100
AcDbSymbolTable
70
0
0
ENDTAB
0
TABLE
2
APPID
5
9
100
AcDbSymbolTable
70
2
0
APPID
5
12
100
AcDbSymbolTableRecord
100
AcDbRegAppTableRecord
2
ACAD
70
0
0
ENDTAB
0
TABLE
2
DIMSTYLE
5
A
100
AcDbSymbolTable
70
1
0
ENDTAB
0
TABLE
2
BLOCK_RECORD
5
1
100
AcDbSymbolTable
70
1
0
BLOCK_RECORD
5
1F
100
AcDbSymbolTableRecord
100
AcDbBlockTableRecord
2
*MODEL_SPACE
0
BLOCK_RECORD
5
1B
100
AcDbSymbolTableRecord
100
AcDbBlockTableRecord
2
*PAPER_SPACE
0
ENDTAB
0
ENDSEC
0
SECTION
2
BLOCKS
0
BLOCK
5
20
100
AcDbEntity
100
AcDbBlockBegin
2
*MODEL_SPACE
0
ENDBLK
5
21
100
AcDbEntity
100
AcDbBlockEnd
0
BLOCK
5
1C
100
AcDbEntity
100
AcDbBlockBegin
2
*PAPER_SPACE
0
ENDBLK
5
1D
100
AcDbEntity
100
AcDbBlockEnd
0
ENDSEC
0
SECTION
2
ENTITIES
0
LWPOLYLINE
5
100
100
AcDbEntity
8
0
100
AcDbPolyline
90
12
70
1
43
0.0
10
80.800000000000054
20
37.000000402331892
10
76.800000000000054
20
37.000000402331892
10
76.800000000000054
20
42.000000402331892
10
-125.19999999999985
20
42.000000402331679
10
-125.19999999999987
20
37.000000402331679
10
-129.1999999999999
20
37.000000402331693
10
-129.19999999999987
20
17.00000040233169
10
-125.19999999999987
20
17.00000040233169
10
-125.19999999999987
20
12.00000040233169
10
76.800000000000054
20
12.000000402331894
10
76.800000000000054
20
17.000000402331892
10
80.800000000000054
20
17.000000402331892
0
LWPOLYLINE
5
101
100
AcDbEntity
8
0
100
AcDbPolyline
90
12
70
1
43
0.0
10
-130.00000000000148
20
2.0000004023319207
10
-126.00000000000151
20
2.0000004023319073
10
-126.00000000000151
20
-17.999999597668086
10
-130.00000000000151
20
-17.999999597668086
10
-130.00000000000151
20
-22.999999597668079
10
79.999999999998423
20
-22.999999597668278
10
79.999999999998437
20
-17.999999597668285
10
75.999999999998451
20
-17.999999597668278
10
75.999999999998508
20
2.0000004023317253
10
79.999999999998437
20
2.0000004023317253
10
79.999999999998437
20
7.0000004023317075
10
-130.00000000000148
20
7.0000004023319207
0
CIRCLE
5
102
100
AcDbEntity
8
0
100
AcDbCircle
10
-6.5499999999987502
20
58.000000402331686
30
0
40
2
210
0
220
0
230
1
0
LWPOLYLINE
5
103
100
AcDbEntity
8
0
100
AcDbPolyline
90
14
70
1
43
0.0
10
-9.799999538062746
20
52.000000685453841
10
-50.799999999998739
20
52.000000685453884
10
-50.799999999998732
20
73.000000402331807
10
-9.7999995380627336
20
73.000000402331779
10
-9.7999995380627336
20
68.113492887048722
10
-9.0484770675464787
20
68.087249144087934
10
-8.4808139550746375
20
67.478504984437905
42
-4.0279123003455242
10
-7.2049118542268475
20
66.110267494433984
10
-6.637248741754993
20
65.50152333478394
10
-6.8117462252675054
20
60.504569199688483
10
-7.4204903849175397
20
59.936906087216627
42
0.24826757025326168
10
-8.7887278749214701
20
58.66100398636884
10
-9.3974720345715035
20
58.093340873896992
10
-9.799999538062746
20
58.107397444060496
0
LWPOLYLINE
5
104
100
AcDbEntity
8
0
100
AcDbPolyline
90
12
70
1
43
0.0
10
80.199999999999847
20
52.000000402331693
10
84.199999999999861
20
52.000000402331693
10
84.199999999999875
20
72.000000402331679
10
80.199999999999875
20
72.000000402331693
10
80.199999999999875
20
77.000000402331693
10
-121.80000000000007
20
77.000000402331892
10
-121.80000000000007
20
72.000000402331892
10
-125.80000000000005
20
72.000000402331892
10
-125.80000000000007
20
52.000000402331906
10
-121.80000000000007
20
52.000000402331892
10
-121.80000000000007
20
47.000000402331892
10
80.199999999999847
20
47.000000402331693
0
CIRCLE
5
105
100
AcDbEntity
8
0
100
AcDbCircle
10
-54.549999999998711
20
58.000000402331779
30
0
40
2
210
0
220
0
230
1
0
CIRCLE
5
106
100
AcDbEntity
8
0
100
AcDbCircle
10
-54.549999999998697
20
68.000000402331764
30
0
40
2
210
0
220
0
230
1
0
LWPOLYLINE
5
107
100
AcDbEntity
8
0
100
AcDbPolyline
90
12
70
1
43
0.0
10
-129.99999999999844
20
87.000000402331708
10
-129.99999999999844
20
82.000000402331708
10
80.000000000001492
20
82.000000402331921
10
80.000000000001506
20
87.000000402331921
10
76.000000000001506
20
87.000000402331921
10
76.000000000001506
20
107.00000040233192
10
80.000000000001492
20
107.00000040233192
10
80.000000000001492
20
112.00000040233192
10
-129.99999999999852
20
112.00000040233171
10
-129.99999999999844
20
107.00000040233171
10
-125.99999999999851
20
107.00000040233172
10
-125.99999999999845
20
87.000000402331722
0
CIRCLE
5
108
100
AcDbEntity
8
0
100
AcDbCircle
10
-25.000000000001258
20
96.999999999999872
30
0
40
6.4999999999999991
210
0
220
0
230
1
0
ENDSEC
0
SECTION
2
OBJECTS
0
DICTIONARY
5
C
100
AcDbDictionary
3
ACAD_GROUP
350
D
3
ACAD_MLINESTYLE
350
17
0
DICTIONARY
5
D
100
AcDbDictionary
0
DICTIONARY
5
1A
330
C
100
AcDbDictionary
0
DICTIONARY
5
17
100
AcDbDictionary
0
ENDSEC
0
EOF
