<svg xmlns="http://www.w3.org/2000/svg" viewBox="0 0 893.9 167.61"><defs><style>.cls-1{fill:#fff;}.cls-2{fill:#e9e7e5;}.cls-3{fill:#383838;}.cls-4{fill:#201f1d;}.cls-5{fill:#96c348;}.cls-6{fill:#c7c9ce;}.cls-7{fill:#d6dbdf;}</style></defs><g id="Capa_2" data-name="Capa 2"><g id="Capa_1-2" data-name="Capa 1"><path d="M0,91.39H166.89V77H3.71V74.71H166.48c1.93-10.2,1.93-10.2,12-10.2h37.12V41.27c0-7.46,0-7.47,7.2-7.47H339.53c7.14,0,7.12,0,7.13,7.39,0,1.56.13,3.13.23,5.16H372V120.3H347.26c-.21,1.52-.44,2.54-.47,3.58-.35,10.44-.34,10.45-11,10.45-38,0-76.07-.1-114.1.11-5,0-6.46-1.5-6.23-6.37.38-7.79.1-15.62.1-24.24H167.38v-10H0Zm343,39.22V37.35H219.19v93.26ZM215.1,100.21V68.11H170.86v32.1ZM347.54,49.9v66.89h21.29V49.9Z"/><path d="M672,0H847.2c26.2,0,46.24,19.49,46.51,45.76q.38,38,0,76c-.23,26.27-20.21,45.82-46.39,45.82H498.07c-28.11,0-47.49-19.36-47.45-47.33q0-36.67,0-73.34C450.63,19.59,470,.08,497.41,0Q584.73-.08,672,0Zm-.11,164.36H847.1c24.59,0,43.17-18.06,43.39-42.65q.33-38,0-76a41.84,41.84,0,0,0-13.44-31C867.53,5.63,855.93,3,843.13,3q-110.61.18-221.24,0C581,3,540.11,3,499.22,3.05c-26.41.06-45,17.08-45.45,42.34q-.69,38.81.06,77.62c.44,23.77,19.13,41.36,42.93,41.36Z"/><path class="cls-1" d="M343,130.61H219.19V37.35H343Z"/><path class="cls-1" d="M215.1,100.21H170.86V68.11H215.1Z"/><path class="cls-2" d="M347.54,49.9h21.29v66.89H347.54Z"/><path class="cls-1" d="M671.93,164.38H496.76c-23.8,0-42.49-17.59-42.93-41.36q-.74-38.79-.06-77.62c.46-25.26,19-42.28,45.45-42.34C540.11,3,581,3,621.89,3Q732.52,3,843.13,3c12.8,0,24.4,2.65,33.92,11.7a41.84,41.84,0,0,1,13.44,31q.28,38,0,76c-.22,24.59-18.8,42.65-43.39,42.65Zm.18-9.54v0q86.53,0,173.07,0c22.26,0,35.72-13.44,35.72-35.57,0-23-.65-46.07.2-69.07.75-20.18-12.87-37.76-37.4-37.64-103.41.52-206.83.22-310.24.21-11.79,0-23.58-.27-35.37-.08-21.55.35-34.82,14-34.82,35.5,0,23.92-.14,47.84.11,71.75A39.67,39.67,0,0,0,466,134.48c6,14.19,17.16,20.46,32.54,20.42C556.37,154.75,614.24,154.84,672.11,154.84Z"/><path d="M672.11,154.84c-57.87,0-115.74-.09-173.61.06-15.38,0-26.58-6.23-32.54-20.42a39.67,39.67,0,0,1-2.58-14.59c-.25-23.91-.1-47.83-.11-71.75,0-21.49,13.27-35.15,34.82-35.5,11.79-.19,23.58.08,35.37.08,103.41,0,206.83.31,310.24-.21,24.53-.12,38.15,17.46,37.4,37.64-.85,23-.19,46.05-.2,69.07,0,22.13-13.46,35.56-35.72,35.57q-86.53,0-173.07,0Z"/><path class="cls-3" d="M533.46,12.72c-11.79,0-23.58-.27-35.37-.08-21.55.35-34.82,14-34.82,35.5,0,23.92-.14,47.84.11,71.75A39.67,39.67,0,0,0,466,134.48c6,14.19,17.16,20.46,32.54,20.42q76.47-.21,153-.07l-100-142.1Z"/><path class="cls-4" d="M881.1,50.15c.75-20.18-12.87-37.76-37.4-37.64-97.41.49-194.82.26-292.23.22l100,142.1h20.66v0q86.53,0,173.07,0c22.26,0,35.72-13.44,35.72-35.57C880.91,96.2,880.25,73.15,881.1,50.15Z"/><polygon class="cls-5" points="432.16 84.16 398.77 51.88 398.77 116.43 432.16 84.16"/><path class="cls-6" d="M235.46,69.16h1.9V98.43h14.82v1.78H235.46Z"/><path class="cls-6" d="M258,69.16h17v1.77H259.94V83.66h12.37v1.78H259.94v13h15.92v1.78H258Z"/><path class="cls-6" d="M298.57,89.47H285.39l-4,10.74h-2l11.62-31h2l11.62,31.05h-2ZM292,71.38s-.67,2.39-1.15,3.72l-4.75,12.6H297.9l-4.7-12.6c-.49-1.33-1.15-3.72-1.15-3.72Z"/><path class="cls-6" d="M310.23,69.16h10.2c5.41,0,9.45,3.41,9.45,9s-4,9.13-9.45,9.13h-8.29v12.87h-1.91Zm10.11,16.41c4.53,0,7.54-2.71,7.54-7.36s-3-7.28-7.54-7.28h-8.2V85.57Z"/><path class="cls-7" d="M215.1,68.11h-8.68s4.59,9.14,4.34,18.55-4.34,13.55-4.34,13.55h8.68Z"/><rect class="cls-7" x="163.88" y="77.03" width="3.01" height="14.36"/></g></g></svg>