0
SECTION
2
HEADER
9
$INSUNITS
70
4
9
$ACADVER
1
AC1014
9
$HANDSEED
5
FFFF
0
ENDSEC
0
SECTION
2
TABLES
0
TABLE
2
VPORT
5
8
100
AcDbSymbolTable
0
ENDTAB
0
TABLE
2
LTYPE
5
5
100
AcDbSymbolTable
0
LTYPE
5
14
100
AcDbSymbolTableRecord
100
AcDbLinetypeTableRecord
2
BYBLOCK
70
0
0
LTYPE
5
15
100
AcDbSymbolTableRecord
100
AcDbLinetypeTableRecord
2
BYLAYER
70
0
0
ENDTAB
0
TABLE
2
LAYER
5
2
100
AcDbSymbolTable
70
2
0
LAYER
5
50
100
AcDbSymbolTableRecord
100
AcDbLayerTableRecord
2
0
70
0
6
CONTINUOUS
0
ENDTAB
0
TABLE
2
STYLE
5
3
100
AcDbSymbolTable
70
1
0
STYLE
5
11
100
AcDbSymbolTableRecord
100
AcDbTextStyleTableRecord
2
STANDARD
70
0
0
ENDTAB
0
TABLE
2
VIEW
5
6
100
AcDbSymbolTable
70
0
0
ENDTAB
0
TABLE
2
UCS
5
7
100
AcDbSymbolTable
70
0
0
ENDTAB
0
TABLE
2
APPID
5
9
100
AcDbSymbolTable
70
2
0
APPID
5
12
100
AcDbSymbolTableRecord
100
AcDbRegAppTableRecord
2
ACAD
70
0
0
ENDTAB
0
TABLE
2
DIMSTYLE
5
A
100
AcDbSymbolTable
70
1
0
ENDTAB
0
TABLE
2
BLOCK_RECORD
5
1
100
AcDbSymbolTable
70
1
0
BLOCK_RECORD
5
1F
100
AcDbSymbolTableRecord
100
AcDbBlockTableRecord
2
*MODEL_SPACE
0
BLOCK_RECORD
5
1B
100
AcDbSymbolTableRecord
100
AcDbBlockTableRecord
2
*PAPER_SPACE
0
ENDTAB
0
ENDSEC
0
SECTION
2
BLOCKS
0
BLOCK
5
20
100
AcDbEntity
100
AcDbBlockBegin
2
*MODEL_SPACE
0
ENDBLK
5
21
100
AcDbEntity
100
AcDbBlockEnd
0
BLOCK
5
1C
100
AcDbEntity
100
AcDbBlockBegin
2
*PAPER_SPACE
0
ENDBLK
5
1D
100
AcDbEntity
100
AcDbBlockEnd
0
ENDSEC
0
SECTION
2
ENTITIES
0
LWPOLYLINE
5
100
100
AcDbEntity
8
0
100
AcDbPolyline
90
84
70
1
43
0.0
10
150
20
90
10
146
20
90
10
146
20
110
10
150
20
110
10
150
20
126.00000000000001
10
135
20
126.00000000000001
10
135
20
130
10
110
20
130
10
110
20
126.00000000000001
10
95
20
126.00000000000001
10
95
20
130
10
70
20
130
10
70
20
126.00000000000001
10
55
20
126.00000000000001
10
55
20
130
10
-10
20
130
10
-10
20
126.00000000000001
10
-25
20
126.00000000000001
10
-25
20
130
10
-50
20
130
10
-50
20
126.00000000000001
10
-65
20
126.00000000000001
10
-65
20
130
10
-90
20
130
10
-90
20
126.00000000000001
10
-110
20
126.00000000000001
10
-110
20
110
10
-106.00000000000001
20
110
10
-106.00000000000001
20
90
10
-110
20
90
10
-110
20
47.5
10
-106.00000000000001
20
47.5
10
-106.00000000000001
20
27.5
10
-110
20
27.5
10
-110
20
5
10
-106.00000000000001
20
5
10
-106.00000000000001
20
-15
10
-110
20
-15
10
-110
20
-37.5
10
-106.00000000000001
20
-37.5
10
-106.00000000000001
20
-77.499999999999986
10
-110
20
-77.499999999999986
10
-110
20
-100
10
-106.00000000000001
20
-100
10
-106.00000000000001
20
-120
10
-110
20
-120
10
-110
20
-126.00000000000001
10
-90
20
-125.99999999999996
10
-90
20
-129.99999999999997
10
-65
20
-129.99999999999997
10
-65
20
-125.99999999999996
10
-50
20
-125.99999999999996
10
-50
20
-129.99999999999997
10
-25
20
-129.99999999999997
10
-25
20
-125.99999999999996
10
-10
20
-125.99999999999996
10
-10
20
-129.99999999999997
10
55
20
-129.99999999999997
10
55
20
-125.99999999999996
10
70
20
-125.99999999999996
10
70
20
-129.99999999999997
10
95
20
-129.99999999999997
10
95
20
-125.99999999999996
10
110
20
-125.99999999999996
10
110
20
-129.99999999999997
10
135
20
-129.99999999999997
10
135
20
-125.99999999999996
10
150
20
-125.99999999999996
10
150
20
-120
10
146
20
-120
10
146
20
-100
10
150
20
-100
10
150
20
-77.499999999999986
10
146
20
-77.499999999999986
10
146
20
-37.5
10
150
20
-37.5
10
150
20
-15
10
146
20
-15
10
146
20
5
10
150
20
5
10
150
20
27.5
10
146
20
27.5
10
146
20
47.5
10
150
20
47.5
0
LWPOLYLINE
5
101
100
AcDbEntity
8
0
100
AcDbPolyline
90
52
70
1
43
0.0
10
-105
20
185
10
-110
20
185
10
-110
20
140
10
-95
20
140
10
-95
20
144
10
-70
20
144
10
-70
20
140
10
-55
20
140
10
-55
20
144
10
-30
20
144
10
-30
20
140
10
-15
20
140
10
-15
20
144
10
50
20
144
10
50
20
140
10
65
20
140
10
65
20
144
10
90
20
144
10
90
20
140
10
105
20
140
10
105
20
144
10
130
20
144
10
130
20
140
10
150
20
140
10
150
20
185
10
145
20
185
10
145
20
205
10
150
20
205
10
150.00000163912773
20
220
10
130
20
220
10
130
20
226
10
105
20
226
10
105
20
220
10
90
20
220
10
90
20
226
10
65
20
226
10
65
20
220
10
50
20
220
10
50
20
226
10
-15
20
226
10
-15
20
220
10
-30
20
220
10
-30
20
226
10
-55
20
226
10
-55
20
220
10
-70
20
220
10
-70
20
226
10
-95
20
226
10
-95
20
220
10
-110
20
220
10
-110
20
205
10
-105
20
205
0
LWPOLYLINE
5
102
100
AcDbEntity
8
0
100
AcDbPolyline
90
32
70
1
43
0.0
10
130
20
-216
10
145.99999999999997
20
-216
10
145.99999999999997
20
-175
10
149.99999999999997
20
-175
10
149.99999999999997
20
-155
10
145.99999999999997
20
-155.00000000000003
10
145.99999999999997
20
-140.00000000000003
10
-105.99999999999993
20
-140
10
-105.99999999999996
20
-155.00000000000003
10
-109.99999999999994
20
-155.00000000000003
10
-109.99999999999994
20
-175
10
-105.99999999999996
20
-175
10
-105.99999999999994
20
-216
10
-99.999999999999943
20
-216
10
-99.999999999999972
20
-220
10
-79.999999999999972
20
-220
10
-79.999999999999972
20
-216
10
-57.499999999999972
20
-216
10
-57.499999999999972
20
-220
10
-17.499999999999996
20
-220
10
-17.499999999999996
20
-216
10
5.0000000000000044
20
-216
10
5.0000000000000044
20
-220
10
25
20
-220
10
25
20
-216
10
47.5
20
-216
10
47.5
20
-220
10
67.499999999999986
20
-220
10
67.499999999999986
20
-216
10
110
20
-216
10
110
20
-220
10
130
20
-220
0
CIRCLE
5
103
100
AcDbEntity
8
0
100
AcDbCircle
10
19.999999999999993
20
-163
30
0
40
6.4999999999999991
210
0
220
0
230
1
0
LWPOLYLINE
5
104
100
AcDbEntity
8
0
100
AcDbPolyline
90
52
70
1
43
0.0
10
159.33802183475436
20
34.365002402302629
10
159.33802183475436
20
-30.634997597697364
10
155.33802183475439
20
-30.634997597697364
10
155.33802183475439
20
-45.634997597697364
10
159.33802183475436
20
-45.634997597697364
10
159.33802183475436
20
-70.634997597697378
10
155.33802183475439
20
-70.634997597697378
10
155.33802183475439
20
-85.634997597697378
10
159.33802183475436
20
-85.634997597697378
10
159.33802183475436
20
-110.63499759769738
10
155.33802183475439
20
-110.63499759769738
10
155.33802183475439
20
-125.63499759769738
10
200.33802183475439
20
-125.63499759769738
10
200.33802183475439
20
-120.63499759769738
10
220.33802183475439
20
-120.63499759769738
10
220.33802183475439
20
-125.63499759769738
10
235.33802183475439
20
-125.63499759769738
10
235.33802183475439
20
-110.63499759769738
10
241.33802183475439
20
-110.63499759769738
10
241.33802183475439
20
-85.634997597697378
10
235.33802183475439
20
-85.634997597697378
10
235.33802183475439
20
-70.634997597697378
10
241.33802183475439
20
-70.634997597697378
10
241.33802183475439
20
-45.634997597697364
10
235.33802183475439
20
-45.634997597697364
10
235.33802183475439
20
-30.634997597697364
10
241.33802183475439
20
-30.634997597697364
10
241.33802183475439
20
34.365002402302629
10
235.33802183475439
20
34.365002402302629
10
235.33802183475439
20
49.365002402302629
10
241.33802183475439
20
49.365002402302629
10
241.33802183475439
20
74.365002402302622
10
235.33802183475439
20
74.365002402302622
10
235.33802183475439
20
89.365002402302622
10
241.33802183475439
20
89.365002402302622
10
241.33802183475439
20
114.36500240230262
10
235.33802183475439
20
114.36500240230262
10
235.33802183475444
20
134.36500240230262
10
220.33802183475439
20
134.36500240230262
10
220.33802183475439
20
129.36500240230262
10
200.33802183475439
20
129.36500240230262
10
200.33802183475439
20
134.36500240230262
10
155.33802183475439
20
134.36500240230262
10
155.33802183475439
20
114.36500240230262
10
159.33802183475444
20
114.36500240230262
10
159.33802183475436
20
89.365002402302622
10
155.33802183475439
20
89.365002402302622
10
155.33802183475439
20
74.365002402302622
10
159.33802183475436
20
74.365002402302622
10
159.33802183475436
20
49.365002402302629
10
155.33802183475439
20
49.365002402302629
10
155.33802183475439
20
34.365002402302629
0
LWPOLYLINE
5
105
100
AcDbEntity
8
0
100
AcDbPolyline
90
32
70
1
43
0.0
10
-127.5
20
-3.5000000000000453
10
-123.49999999999997
20
-3.5000000000000453
10
-123.49999999999997
20
16.499999999999954
10
-127.5
20
16.499999999999954
10
-127.49999999999997
20
38.999999999999957
10
-123.49999999999997
20
38.999999999999957
10
-123.49999999999997
20
78.999999999999915
10
-127.49999999999997
20
78.999999999999915
10
-127.49999999999997
20
101.49999999999991
10
-123.49999999999997
20
101.49999999999991
10
-123.49999999999994
20
121.49999999999991
10
-127.49999999999997
20
121.49999999999991
10
-127.49999999999997
20
127.49999999999989
10
-168.49999999999994
20
127.49999999999991
10
-168.49999999999994
20
131.49999999999989
10
-188.49999999999994
20
131.49999999999989
10
-188.49999999999994
20
127.49999999999991
10
-203.49999999999994
20
127.49999999999991
10
-203.5
20
-124.5
10
-188.5
20
-124.5
10
-188.5
20
-128.50000000000006
10
-168.5
20
-128.50000000000006
10
-168.5
20
-124.5
10
-127.5
20
-124.5
10
-127.5
20
-108.50000000000006
10
-123.50000000000001
20
-108.50000000000006
10
-123.50000000000001
20
-88.500000000000057
10
-127.5
20
-88.500000000000057
10
-127.5
20
-46.00000000000005
10
-123.50000000000001
20
-46.00000000000005
10
-123.49999999999997
20
-26.000000000000046
10
-127.5
20
-26.000000000000046
0
LWPOLYLINE
5
106
100
AcDbEntity
8
0
100
AcDbPolyline
90
10
70
1
43
0.0
10
-170.50000040233135
20
11.500000000000451
10
-170.50000040233135
20
-28.999999999999591
10
-190.50000040233135
20
-28.999999999999591
10
-190.50000040233135
20
11.500000000000451
10
-184.96315534283553
20
11.500000000000451
10
-184.96315534283553
20
13.323397450927017
42
-2.9701716898082431
10
-183.50000040233138
20
15.250000000000096
10
-177.50000040233135
20
15.250000000000096
42
-2.4142135623730945
10
-175.50000040233135
20
13.250000000000098
10
-175.50000040233135
20
11.500000000000451
0
CIRCLE
5
107
100
AcDbEntity
8
0
100
AcDbCircle
10
-185.50000040233135
20
-32.749999999999908
30
0
40
2.0000000000000013
210
0
220
-0
230
1
0
CIRCLE
5
108
100
AcDbEntity
8
0
100
AcDbCircle
10
-175.50000040233135
20
-32.749999999999908
30
0
40
2.0000000000000013
210
0
220
-0
230
1
0
ENDSEC
0
SECTION
2
OBJECTS
0
DICTIONARY
5
C
100
AcDbDictionary
3
ACAD_GROUP
350
D
3
ACAD_MLINESTYLE
350
17
0
DICTIONARY
5
D
100
AcDbDictionary
0
DICTIONARY
5
1A
330
C
100
AcDbDictionary
0
DICTIONARY
5
17
100
AcDbDictionary
0
ENDSEC
0
EOF
